<?xml version="1.0" encoding="UTF-8"?>
<svg id="Layer_2" data-name="Layer 2" xmlns="http://www.w3.org/2000/svg" viewBox="0 0 710.16 353.97">
  <defs>
    <style>
      .cls-1 {
        fill: #0c5448;
      }

      .cls-1, .cls-2, .cls-3, .cls-4 {
        stroke-width: 0px;
      }

      .cls-2 {
        fill: #addb6e;
      }

      .cls-3 {
        fill: #35a169;
      }

      .cls-4 {
        fill: #ffc16b;
      }
    </style>
  </defs>
  <g id="Layer_2-2" data-name="Layer 2">
    <g>
      <g>
        <path class="cls-1" d="M0,306.4v-47.79h33.6v10.46H12.98v8.21h18.58v10.46H12.98v18.67H0Z"/>
        <path class="cls-1" d="M81.69,258.6v47.79h-10.83l-17.27-25.11h-.28v25.11h-12.98v-47.79h11.01l16.99,25.02h.37v-25.02h12.98Z"/>
        <path class="cls-1" d="M89.82,306.4v-47.79h34.44v10.46h-21.47v8.21h19.7v10.46h-19.7v8.21h21.38v10.46h-34.35Z"/>
        <path class="cls-1" d="M160.69,258.6v47.79h-12.98v-47.79h12.98Z"/>
        <path class="cls-1" d="M210.17,258.6v47.79h-10.83l-17.27-25.11h-.28v25.11h-12.98v-47.79h11.01l16.99,25.02h.37v-25.02h12.98Z"/>
        <path class="cls-1" d="M217,269.06v-10.46h41.54v10.46h-14.38v37.34h-12.79v-37.34h-14.38Z"/>
        <path class="cls-1" d="M265.36,306.4v-47.79h34.44v10.46h-21.47v8.21h19.7v10.46h-19.7v8.21h21.38v10.46h-34.35Z"/>
        <path class="cls-1" d="M308.22,306.4v-47.79h20.63c3.55,0,6.65.65,9.31,1.94,2.66,1.29,4.73,3.15,6.21,5.58s2.22,5.34,2.22,8.73-.76,6.31-2.28,8.66c-1.52,2.35-3.64,4.12-6.37,5.32-2.73,1.2-5.92,1.8-9.56,1.8h-12.32v-10.08h9.71c1.52,0,2.83-.19,3.91-.57,1.08-.38,1.91-.99,2.5-1.83.58-.84.88-1.94.88-3.29s-.29-2.49-.88-3.35c-.58-.86-1.42-1.5-2.5-1.91-1.08-.41-2.38-.62-3.91-.62h-4.57v37.43h-12.98ZM336.22,284.46l11.95,21.94h-14.1l-11.67-21.94h13.82Z"/>
        <path class="cls-1" d="M395.42,258.6v47.79h-10.83l-17.27-25.11h-.28v25.11h-12.98v-47.79h11.01l16.99,25.02h.37v-25.02h12.98Z"/>
        <path class="cls-1" d="M415.96,306.4h-14l15.78-47.79h17.74l15.78,47.79h-14l-10.45-34.63h-.37l-10.45,34.63ZM413.35,287.54h26.32v9.71h-26.32v-9.71Z"/>
        <path class="cls-1" d="M450.42,269.06v-10.46h41.54v10.46h-14.38v37.34h-12.79v-37.34h-14.38Z"/>
        <path class="cls-1" d="M511.76,258.6v47.79h-12.98v-47.79h12.98Z"/>
        <path class="cls-1" d="M566.19,282.5c0,5.32-1.03,9.8-3.1,13.45s-4.86,6.41-8.38,8.29-7.44,2.81-11.76,2.81-8.29-.95-11.8-2.83c-3.51-1.89-6.29-4.66-8.35-8.31-2.06-3.65-3.09-8.12-3.09-13.41s1.03-9.81,3.09-13.45c2.06-3.65,4.85-6.41,8.35-8.28s7.44-2.81,11.8-2.81,8.25.94,11.76,2.81,6.31,4.64,8.38,8.28,3.1,8.13,3.1,13.45ZM552.84,282.5c0-2.86-.38-5.28-1.13-7.25-.75-1.97-1.87-3.46-3.34-4.48-1.47-1.02-3.28-1.53-5.43-1.53s-3.96.51-5.43,1.53c-1.47,1.02-2.58,2.51-3.34,4.48-.75,1.97-1.13,4.38-1.13,7.25s.38,5.28,1.13,7.25c.75,1.97,1.87,3.46,3.34,4.48,1.47,1.02,3.28,1.53,5.43,1.53s3.96-.51,5.43-1.53c1.47-1.02,2.58-2.51,3.34-4.48.75-1.97,1.13-4.38,1.13-7.25Z"/>
        <path class="cls-1" d="M615.49,258.6v47.79h-10.83l-17.27-25.11h-.28v25.11h-12.98v-47.79h11.02l16.99,25.02h.37v-25.02h12.97Z"/>
        <path class="cls-1" d="M636.03,306.4h-14l15.78-47.79h17.74l15.78,47.79h-14l-10.46-34.63h-.37l-10.46,34.63ZM633.42,287.54h26.32v9.71h-26.32v-9.71Z"/>
        <path class="cls-1" d="M677.86,306.4v-47.79h12.98v37.34h19.32v10.46h-32.3Z"/>
      </g>
      <g>
        <path class="cls-3" d="M92.2,353.65v-23.59h10.18c1.75,0,3.28.35,4.6,1.04,1.31.69,2.33,1.66,3.06,2.91s1.09,2.71,1.09,4.39-.37,3.15-1.12,4.39c-.75,1.24-1.8,2.19-3.14,2.86-1.35.67-2.92,1-4.72,1h-6.08v-4.98h4.79c.75,0,1.4-.13,1.93-.4.53-.26.94-.64,1.23-1.13.29-.49.43-1.07.43-1.74s-.14-1.25-.43-1.73c-.29-.48-.7-.85-1.23-1.11-.53-.26-1.18-.39-1.93-.39h-2.26v18.48h-6.4Z"/>
        <path class="cls-3" d="M118.61,353.65h-6.91l7.79-23.59h8.75l7.79,23.59h-6.91l-5.16-17.09h-.18l-5.16,17.09ZM117.32,344.34h12.99v4.79h-12.99v-4.79Z"/>
        <path class="cls-3" d="M136.59,335.22v-5.16h20.5v5.16h-7.1v18.43h-6.31v-18.43h-7.1Z"/>
        <path class="cls-3" d="M161.44,353.65v-23.59h6.4v9.21h8.48v-9.21h6.4v23.59h-6.4v-9.21h-8.48v9.21h-6.4Z"/>
        <path class="cls-3" d="M193.7,353.65l-6.96-23.59h7.14l3.23,14.51h.18l3.82-14.51h5.62l3.82,14.56h.18l3.23-14.56h7.14l-6.96,23.59h-6.13l-4.01-13.18h-.18l-4.01,13.18h-6.13Z"/>
        <path class="cls-3" d="M228.5,353.65h-6.91l7.79-23.59h8.75l7.79,23.59h-6.91l-5.16-17.09h-.18l-5.16,17.09ZM227.21,344.34h12.99v4.79h-12.99v-4.79Z"/>
        <path class="cls-3" d="M246.75,330.06h7.14l4.61,9.58h.18l4.61-9.58h7.14l-8.66,16.17v7.42h-6.36v-7.42l-8.66-16.17Z"/>
        <path class="cls-3" d="M287.17,337.43c-.06-.77-.35-1.37-.86-1.8s-1.28-.65-2.32-.65c-.66,0-1.2.08-1.62.24-.42.16-.73.37-.93.64-.2.27-.3.58-.31.92-.02.28.04.54.16.77s.31.43.57.61c.26.18.59.34,1,.49.41.15.89.28,1.45.39l1.94.42c1.31.28,2.42.64,3.35,1.09s1.69.99,2.28,1.6c.59.61,1.03,1.3,1.31,2.06.28.76.42,1.59.43,2.49,0,1.55-.4,2.86-1.16,3.94s-1.86,1.89-3.29,2.45-3.13.84-5.13.84-3.84-.3-5.36-.91c-1.52-.61-2.71-1.54-3.55-2.8-.84-1.26-1.27-2.88-1.27-4.85h6.08c.04.72.22,1.33.54,1.82.32.49.78.86,1.36,1.12.59.25,1.29.38,2.1.38.68,0,1.26-.08,1.72-.25.46-.17.81-.4,1.05-.7.24-.3.36-.64.37-1.03,0-.36-.12-.68-.35-.95s-.6-.52-1.11-.74c-.51-.22-1.21-.42-2.08-.62l-2.35-.51c-2.09-.45-3.73-1.21-4.94-2.28-1.2-1.06-1.8-2.52-1.79-4.36,0-1.5.39-2.81,1.2-3.93s1.94-2,3.38-2.63c1.44-.63,3.09-.94,4.96-.94s3.55.32,4.94.96c1.39.64,2.46,1.53,3.22,2.69s1.14,2.5,1.15,4.05h-6.13Z"/>
        <path class="cls-3" d="M329.25,341.85c0,2.63-.51,4.84-1.53,6.64-1.02,1.8-2.4,3.16-4.14,4.09-1.74.93-3.67,1.39-5.81,1.39s-4.09-.47-5.82-1.4c-1.73-.93-3.11-2.3-4.12-4.1-1.02-1.8-1.53-4.01-1.53-6.62s.51-4.84,1.53-6.64c1.02-1.8,2.39-3.16,4.12-4.09,1.73-.92,3.67-1.39,5.82-1.39s4.07.46,5.81,1.39c1.74.93,3.11,2.29,4.14,4.09,1.02,1.8,1.53,4.01,1.53,6.64ZM322.67,341.85c0-1.41-.19-2.6-.56-3.58s-.92-1.71-1.65-2.21-1.62-.75-2.68-.75-1.95.25-2.68.75-1.27,1.24-1.65,2.21-.56,2.16-.56,3.58.19,2.61.56,3.58c.37.97.92,1.71,1.65,2.21s1.62.75,2.68.75,1.95-.25,2.68-.75,1.27-1.24,1.65-2.21c.37-.97.56-2.16.56-3.58Z"/>
        <path class="cls-3" d="M348.11,330.06h6.4v15.11c0,1.8-.43,3.35-1.28,4.66-.86,1.31-2.05,2.32-3.58,3.03-1.53.71-3.3,1.07-5.32,1.07s-3.82-.36-5.34-1.07c-1.53-.71-2.72-1.72-3.56-3.03-.85-1.31-1.27-2.86-1.27-4.66v-15.11h6.4v14.56c0,.73.16,1.38.48,1.95.32.57.77,1.02,1.34,1.34.57.32,1.22.48,1.95.48s1.39-.16,1.96-.48,1.01-.77,1.34-1.34c.32-.57.48-1.22.48-1.95v-14.56Z"/>
        <path class="cls-3" d="M358.86,335.22v-5.16h20.5v5.16h-7.1v18.43h-6.31v-18.43h-7.1Z"/>
        <path class="cls-3" d="M414.95,341.85c0,2.63-.51,4.84-1.53,6.64-1.02,1.8-2.4,3.16-4.14,4.09-1.74.93-3.67,1.39-5.81,1.39s-4.09-.47-5.82-1.4c-1.73-.93-3.11-2.3-4.12-4.1-1.02-1.8-1.53-4.01-1.53-6.62s.51-4.84,1.53-6.64c1.02-1.8,2.39-3.16,4.12-4.09,1.73-.92,3.67-1.39,5.82-1.39s4.07.46,5.81,1.39c1.74.93,3.11,2.29,4.14,4.09,1.02,1.8,1.53,4.01,1.53,6.64ZM408.36,341.85c0-1.41-.19-2.6-.56-3.58s-.92-1.71-1.65-2.21-1.62-.75-2.68-.75-1.95.25-2.68.75-1.27,1.24-1.65,2.21-.56,2.16-.56,3.58.19,2.61.56,3.58c.37.97.92,1.71,1.65,2.21s1.62.75,2.68.75,1.95-.25,2.68-.75,1.27-1.24,1.65-2.21c.37-.97.56-2.16.56-3.58Z"/>
        <path class="cls-3" d="M419.84,353.65v-23.59h16.59v5.16h-10.18v4.05h9.17v5.16h-9.17v9.21h-6.4Z"/>
        <path class="cls-3" d="M449.12,353.65v-23.59h10.18c1.75,0,3.28.35,4.6,1.04,1.31.69,2.33,1.66,3.06,2.91s1.09,2.71,1.09,4.39-.37,3.15-1.12,4.39c-.75,1.24-1.8,2.19-3.14,2.86-1.35.67-2.92,1-4.72,1h-6.08v-4.98h4.79c.75,0,1.4-.13,1.93-.4.53-.26.94-.64,1.23-1.13.29-.49.43-1.07.43-1.74s-.14-1.25-.43-1.73c-.29-.48-.7-.85-1.23-1.11-.53-.26-1.18-.39-1.93-.39h-2.26v18.48h-6.4Z"/>
        <path class="cls-3" d="M495.2,341.85c0,2.63-.51,4.84-1.53,6.64-1.02,1.8-2.4,3.16-4.14,4.09-1.74.93-3.67,1.39-5.81,1.39s-4.09-.47-5.82-1.4c-1.73-.93-3.11-2.3-4.12-4.1-1.02-1.8-1.53-4.01-1.53-6.62s.51-4.84,1.53-6.64c1.02-1.8,2.39-3.16,4.12-4.09,1.73-.92,3.67-1.39,5.82-1.39s4.07.46,5.81,1.39c1.74.93,3.11,2.29,4.14,4.09,1.02,1.8,1.53,4.01,1.53,6.64ZM488.62,341.85c0-1.41-.19-2.6-.56-3.58s-.92-1.71-1.65-2.21-1.62-.75-2.68-.75-1.95.25-2.68.75-1.27,1.24-1.65,2.21-.56,2.16-.56,3.58.19,2.61.56,3.58c.37.97.92,1.71,1.65,2.21s1.62.75,2.68.75,1.95-.25,2.68-.75,1.27-1.24,1.65-2.21c.37-.97.56-2.16.56-3.58Z"/>
        <path class="cls-3" d="M505.08,330.06l4.84,16.63h.18l4.84-16.63h7.23l-7.79,23.59h-8.75l-7.79-23.59h7.23Z"/>
        <path class="cls-3" d="M526.37,353.65v-23.59h17v5.16h-10.6v4.05h9.72v5.16h-9.72v4.05h10.55v5.16h-16.96Z"/>
        <path class="cls-3" d="M548.5,353.65v-23.59h10.18c1.75,0,3.28.32,4.6.96,1.31.64,2.33,1.55,3.06,2.75s1.09,2.63,1.09,4.31-.37,3.11-1.12,4.27c-.75,1.16-1.8,2.04-3.14,2.63-1.35.59-2.92.89-4.72.89h-6.08v-4.98h4.79c.75,0,1.4-.09,1.93-.28.53-.19.94-.49,1.23-.9.29-.41.43-.96.43-1.62s-.14-1.23-.43-1.65c-.29-.43-.7-.74-1.23-.94-.53-.2-1.18-.31-1.93-.31h-2.26v18.48h-6.4ZM562.32,342.82l5.9,10.83h-6.96l-5.76-10.83h6.82Z"/>
        <path class="cls-3" d="M571.45,335.22v-5.16h20.5v5.16h-7.1v18.43h-6.31v-18.43h-7.1Z"/>
        <path class="cls-3" d="M595.33,330.06h7.14l4.61,9.58h.18l4.61-9.58h7.14l-8.66,16.17v7.42h-6.36v-7.42l-8.66-16.17Z"/>
      </g>
      <g>
        <path class="cls-4" d="M354.61,118h-14v-14c0-7.72,6.28-14,14-14h14v14c0,7.72-6.28,14-14,14Z"/>
        <g>
          <path class="cls-3" d="M471.78,12.32l-15.81-11.9c-1.38-1.04-3.35-.05-3.35,1.68v3.9h-98c-54.04,0-98,43.96-98,98v98h16v-98c0-45.21,36.79-82,82-82h98v3.9c0,1.73,1.97,2.72,3.35,1.68l15.81-11.9c1.12-.84,1.12-2.52,0-3.36Z"/>
          <path class="cls-3" d="M436.61,104c0,45.21-36.79,82-82,82h-70v16h70c54.04,0,98-43.96,98-98V34h-16v70Z"/>
        </g>
        <g>
          <polygon class="cls-2" points="300.61 130 284.61 130 284.61 174 328.61 174 328.61 158 300.61 158 300.61 130"/>
          <path class="cls-2" d="M354.61,34c-38.6,0-70,31.4-70,70v14h16v-14c0-29.78,24.22-54,54-54h54v40h-28v14c0,14.34-11.66,26-26,26h-26v-26c0-14.34,11.66-26,26-26h42v-16h-42c-23.16,0-42,18.84-42,42v42h42c23.16,0,42-18.84,42-42v-2h12v2c0,29.78-24.22,54-54,54h-14v16h14c38.6,0,70-31.4,70-70V34h-70Z"/>
        </g>
      </g>
    </g>
  </g>
</svg>