<?xml version="1.0" encoding="UTF-8"?>
<svg id="Layer_2" data-name="Layer 2" xmlns="http://www.w3.org/2000/svg" viewBox="0 0 960.27 202">
  <defs>
    <style>
      .cls-1 {
        fill: #125548;
      }

      .cls-1, .cls-2, .cls-3, .cls-4 {
        stroke-width: 0px;
      }

      .cls-2 {
        fill: #30a269;
      }

      .cls-3 {
        fill: #fdc16c;
      }

      .cls-4 {
        fill: #afd46e;
      }
    </style>
  </defs>
  <g id="Layer_2-2" data-name="Layer 2">
    <g>
      <g>
        <g>
          <path class="cls-1" d="M250.11,154.3v-47.79h33.6v10.46h-20.63v8.21h18.58v10.46h-18.58v18.67h-12.97Z"/>
          <path class="cls-1" d="M331.79,106.5v47.79h-10.83l-17.27-25.11h-.28v25.11h-12.98v-47.79h11.01l16.99,25.02h.37v-25.02h12.98Z"/>
          <path class="cls-1" d="M339.93,154.3v-47.79h34.44v10.46h-21.47v8.21h19.7v10.46h-19.7v8.21h21.38v10.46h-34.35Z"/>
          <path class="cls-1" d="M410.8,106.5v47.79h-12.98v-47.79h12.98Z"/>
          <path class="cls-1" d="M460.28,106.5v47.79h-10.83l-17.27-25.11h-.28v25.11h-12.98v-47.79h11.02l16.99,25.02h.37v-25.02h12.97Z"/>
          <path class="cls-1" d="M467.11,116.96v-10.46h41.54v10.46h-14.38v37.34h-12.79v-37.34h-14.38Z"/>
          <path class="cls-1" d="M515.47,154.3v-47.79h34.45v10.46h-21.47v8.21h19.7v10.46h-19.7v8.21h21.38v10.46h-34.35Z"/>
          <path class="cls-1" d="M558.33,154.3v-47.79h20.63c3.55,0,6.65.65,9.31,1.94,2.66,1.29,4.73,3.15,6.21,5.58s2.22,5.34,2.22,8.73-.76,6.31-2.28,8.66c-1.52,2.35-3.64,4.12-6.37,5.32s-5.92,1.8-9.56,1.8h-12.32v-10.08h9.71c1.52,0,2.83-.19,3.91-.57s1.91-.99,2.5-1.83c.58-.84.88-1.94.88-3.29s-.29-2.49-.88-3.35c-.58-.86-1.42-1.5-2.5-1.91s-2.38-.62-3.91-.62h-4.57v37.43h-12.98ZM586.33,132.36l11.95,21.94h-14.09l-11.67-21.94h13.82Z"/>
          <path class="cls-1" d="M645.52,106.5v47.79h-10.83l-17.27-25.11h-.28v25.11h-12.98v-47.79h11.02l16.99,25.02h.37v-25.02h12.97Z"/>
          <path class="cls-1" d="M666.07,154.3h-14l15.78-47.79h17.74l15.78,47.79h-14l-10.46-34.63h-.37l-10.46,34.63ZM663.46,135.44h26.32v9.71h-26.32v-9.71Z"/>
          <path class="cls-1" d="M700.52,116.96v-10.46h41.54v10.46h-14.38v37.34h-12.79v-37.34h-14.38Z"/>
          <path class="cls-1" d="M761.86,106.5v47.79h-12.98v-47.79h12.98Z"/>
          <path class="cls-1" d="M816.29,130.4c0,5.32-1.03,9.8-3.1,13.45s-4.86,6.41-8.38,8.29-7.44,2.81-11.76,2.81-8.29-.95-11.8-2.83c-3.51-1.89-6.29-4.66-8.35-8.31-2.06-3.65-3.09-8.12-3.09-13.41s1.03-9.81,3.09-13.45,4.85-6.41,8.35-8.28c3.51-1.88,7.44-2.81,11.8-2.81s8.25.94,11.76,2.81,6.31,4.64,8.38,8.28,3.1,8.13,3.1,13.45ZM802.95,130.4c0-2.86-.38-5.28-1.13-7.25-.75-1.97-1.87-3.46-3.34-4.48-1.47-1.02-3.28-1.53-5.43-1.53s-3.96.51-5.43,1.53c-1.47,1.02-2.58,2.51-3.34,4.48-.75,1.97-1.13,4.38-1.13,7.25s.38,5.28,1.13,7.25c.75,1.97,1.87,3.46,3.34,4.48,1.47,1.02,3.28,1.53,5.43,1.53s3.96-.51,5.43-1.53c1.47-1.02,2.58-2.51,3.34-4.48.75-1.97,1.13-4.38,1.13-7.25Z"/>
          <path class="cls-1" d="M865.59,106.5v47.79h-10.83l-17.27-25.11h-.28v25.11h-12.98v-47.79h11.02l16.99,25.02h.37v-25.02h12.97Z"/>
          <path class="cls-1" d="M886.14,154.3h-14l15.78-47.79h17.74l15.78,47.79h-14l-10.46-34.63h-.37l-10.46,34.63ZM883.52,135.44h26.32v9.71h-26.32v-9.71Z"/>
          <path class="cls-1" d="M927.97,154.3v-47.79h12.98v37.34h19.32v10.46h-32.3Z"/>
        </g>
        <g>
          <path class="cls-2" d="M249.05,201.55v-23.59h10.18c1.75,0,3.28.35,4.6,1.04,1.31.69,2.33,1.66,3.06,2.91s1.09,2.71,1.09,4.39-.38,3.15-1.12,4.39c-.75,1.24-1.8,2.19-3.14,2.86-1.35.67-2.92,1-4.72,1h-6.08v-4.98h4.79c.75,0,1.4-.13,1.93-.4.53-.26.95-.64,1.23-1.13.29-.49.43-1.07.43-1.74s-.14-1.25-.43-1.73c-.29-.48-.7-.85-1.23-1.11-.53-.26-1.18-.39-1.93-.39h-2.26v18.48h-6.4Z"/>
          <path class="cls-2" d="M275.47,201.55h-6.91l7.79-23.59h8.75l7.79,23.59h-6.91l-5.16-17.09h-.18l-5.16,17.09ZM274.18,192.24h12.99v4.79h-12.99v-4.79Z"/>
          <path class="cls-2" d="M293.45,183.12v-5.16h20.5v5.16h-7.09v18.43h-6.31v-18.43h-7.09Z"/>
          <path class="cls-2" d="M318.29,201.55v-23.59h6.4v9.21h8.48v-9.21h6.4v23.59h-6.4v-9.21h-8.48v9.21h-6.4Z"/>
          <path class="cls-2" d="M350.55,201.55l-6.96-23.59h7.14l3.23,14.51h.18l3.82-14.51h5.62l3.82,14.56h.18l3.22-14.56h7.14l-6.96,23.59h-6.13l-4.01-13.18h-.18l-4.01,13.18h-6.13Z"/>
          <path class="cls-2" d="M385.35,201.55h-6.91l7.79-23.59h8.75l7.79,23.59h-6.91l-5.16-17.09h-.18l-5.16,17.09ZM384.06,192.24h12.99v4.79h-12.99v-4.79Z"/>
          <path class="cls-2" d="M403.6,177.96h7.14l4.61,9.58h.18l4.61-9.58h7.14l-8.66,16.17v7.42h-6.36v-7.42l-8.66-16.17Z"/>
          <path class="cls-2" d="M444.02,185.33c-.06-.77-.35-1.37-.86-1.8-.51-.43-1.29-.65-2.32-.65-.66,0-1.2.08-1.62.24-.42.16-.73.37-.93.64-.2.27-.3.58-.31.92-.02.28.04.54.16.77s.31.43.57.61.59.34,1,.49c.41.15.89.28,1.45.39l1.94.42c1.3.28,2.42.64,3.35,1.09.93.45,1.69.99,2.28,1.6.59.61,1.03,1.3,1.31,2.06.28.76.42,1.59.43,2.49,0,1.55-.4,2.86-1.16,3.94s-1.86,1.89-3.29,2.45c-1.42.56-3.14.84-5.13.84s-3.84-.3-5.36-.91c-1.52-.61-2.71-1.54-3.55-2.8-.84-1.26-1.27-2.88-1.27-4.85h6.08c.04.72.22,1.33.54,1.82.32.49.78.86,1.36,1.12.59.25,1.29.38,2.1.38.68,0,1.25-.08,1.72-.25s.81-.4,1.05-.7c.24-.3.36-.64.37-1.03,0-.36-.12-.68-.35-.95s-.6-.52-1.11-.74-1.21-.42-2.08-.62l-2.35-.51c-2.09-.45-3.73-1.21-4.94-2.28-1.2-1.06-1.8-2.52-1.79-4.36,0-1.5.39-2.81,1.2-3.93.81-1.12,1.94-2,3.38-2.63,1.44-.63,3.09-.94,4.96-.94s3.55.32,4.94.96,2.46,1.53,3.22,2.69c.76,1.16,1.14,2.5,1.15,4.05h-6.13Z"/>
          <path class="cls-2" d="M486.11,189.76c0,2.63-.51,4.84-1.53,6.64s-2.4,3.16-4.13,4.09c-1.74.93-3.67,1.39-5.81,1.39s-4.09-.47-5.82-1.4c-1.73-.93-3.11-2.3-4.12-4.1s-1.53-4.01-1.53-6.62.51-4.84,1.53-6.64,2.39-3.16,4.12-4.09c1.73-.92,3.67-1.39,5.82-1.39s4.07.46,5.81,1.39c1.74.93,3.11,2.29,4.13,4.09s1.53,4.01,1.53,6.64ZM479.52,189.76c0-1.41-.19-2.6-.56-3.58s-.92-1.71-1.65-2.21-1.62-.75-2.68-.75-1.95.25-2.68.75-1.28,1.24-1.65,2.21-.56,2.16-.56,3.58.19,2.61.56,3.58c.37.97.92,1.71,1.65,2.21s1.62.75,2.68.75,1.95-.25,2.68-.75,1.28-1.24,1.65-2.21c.37-.97.56-2.16.56-3.58Z"/>
          <path class="cls-2" d="M504.96,177.96h6.4v15.11c0,1.8-.43,3.35-1.28,4.66s-2.05,2.32-3.58,3.03c-1.53.71-3.3,1.07-5.32,1.07s-3.82-.36-5.34-1.07c-1.53-.71-2.72-1.72-3.57-3.03s-1.27-2.86-1.27-4.66v-15.11h6.4v14.56c0,.73.16,1.38.48,1.95s.77,1.02,1.34,1.34,1.22.48,1.95.48,1.39-.16,1.96-.48c.57-.32,1.01-.77,1.34-1.34.32-.57.48-1.22.48-1.95v-14.56Z"/>
          <path class="cls-2" d="M515.71,183.12v-5.16h20.5v5.16h-7.1v18.43h-6.31v-18.43h-7.1Z"/>
          <path class="cls-2" d="M571.8,189.76c0,2.63-.51,4.84-1.53,6.64s-2.4,3.16-4.13,4.09c-1.74.93-3.67,1.39-5.81,1.39s-4.09-.47-5.82-1.4c-1.73-.93-3.11-2.3-4.12-4.1s-1.53-4.01-1.53-6.62.51-4.84,1.53-6.64,2.39-3.16,4.12-4.09c1.73-.92,3.67-1.39,5.82-1.39s4.07.46,5.81,1.39c1.74.93,3.11,2.29,4.13,4.09s1.53,4.01,1.53,6.64ZM565.21,189.76c0-1.41-.19-2.6-.56-3.58s-.92-1.71-1.65-2.21-1.62-.75-2.68-.75-1.95.25-2.68.75-1.28,1.24-1.65,2.21-.56,2.16-.56,3.58.19,2.61.56,3.58c.37.97.92,1.71,1.65,2.21s1.62.75,2.68.75,1.95-.25,2.68-.75,1.28-1.24,1.65-2.21c.37-.97.56-2.16.56-3.58Z"/>
          <path class="cls-2" d="M576.7,201.55v-23.59h16.59v5.16h-10.18v4.05h9.17v5.16h-9.17v9.21h-6.4Z"/>
          <path class="cls-2" d="M605.97,201.55v-23.59h10.18c1.75,0,3.28.35,4.6,1.04,1.31.69,2.33,1.66,3.06,2.91s1.09,2.71,1.09,4.39-.37,3.15-1.12,4.39c-.75,1.24-1.8,2.19-3.14,2.86-1.35.67-2.92,1-4.72,1h-6.08v-4.98h4.79c.75,0,1.4-.13,1.93-.4.53-.26.94-.64,1.23-1.13s.43-1.07.43-1.74-.14-1.25-.43-1.73c-.29-.48-.7-.85-1.23-1.11-.53-.26-1.18-.39-1.93-.39h-2.26v18.48h-6.4Z"/>
          <path class="cls-2" d="M652.06,189.76c0,2.63-.51,4.84-1.53,6.64s-2.4,3.16-4.13,4.09c-1.74.93-3.67,1.39-5.81,1.39s-4.09-.47-5.82-1.4c-1.73-.93-3.11-2.3-4.12-4.1s-1.53-4.01-1.53-6.62.51-4.84,1.53-6.64,2.39-3.16,4.12-4.09c1.73-.92,3.67-1.39,5.82-1.39s4.07.46,5.81,1.39c1.74.93,3.11,2.29,4.13,4.09s1.53,4.01,1.53,6.64ZM645.47,189.76c0-1.41-.19-2.6-.56-3.58s-.92-1.71-1.65-2.21-1.62-.75-2.68-.75-1.95.25-2.68.75-1.28,1.24-1.65,2.21-.56,2.16-.56,3.58.19,2.61.56,3.58c.37.97.92,1.71,1.65,2.21s1.62.75,2.68.75,1.95-.25,2.68-.75,1.28-1.24,1.65-2.21c.37-.97.56-2.16.56-3.58Z"/>
          <path class="cls-2" d="M661.93,177.96l4.84,16.63h.18l4.84-16.63h7.23l-7.79,23.59h-8.75l-7.79-23.59h7.23Z"/>
          <path class="cls-2" d="M683.22,201.55v-23.59h17v5.16h-10.6v4.05h9.72v5.16h-9.72v4.05h10.55v5.16h-16.96Z"/>
          <path class="cls-2" d="M705.35,201.55v-23.59h10.18c1.75,0,3.28.32,4.6.96,1.31.64,2.33,1.55,3.06,2.75s1.09,2.63,1.09,4.31-.37,3.11-1.12,4.27c-.75,1.16-1.8,2.04-3.14,2.63-1.35.59-2.92.89-4.72.89h-6.08v-4.98h4.79c.75,0,1.4-.09,1.93-.28.53-.19.94-.49,1.23-.9.29-.41.43-.96.43-1.62s-.14-1.23-.43-1.65c-.29-.43-.7-.74-1.23-.94-.53-.2-1.18-.31-1.93-.31h-2.26v18.48h-6.4ZM719.17,190.72l5.9,10.83h-6.96l-5.76-10.83h6.82Z"/>
          <path class="cls-2" d="M728.31,183.12v-5.16h20.5v5.16h-7.1v18.43h-6.31v-18.43h-7.1Z"/>
          <path class="cls-2" d="M752.18,177.96h7.14l4.61,9.58h.18l4.61-9.58h7.14l-8.66,16.17v7.42h-6.36v-7.42l-8.66-16.17Z"/>
        </g>
      </g>
      <g>
        <path class="cls-3" d="M98,118h-14v-14c0-7.72,6.28-14,14-14h14v14c0,7.72-6.28,14-14,14Z"/>
        <g>
          <path class="cls-2" d="M215.16,12.32L199.35.42c-1.38-1.04-3.35-.05-3.35,1.68v3.9h-98C43.96,6,0,49.96,0,104v98h16v-98c0-45.21,36.79-82,82-82h98v3.9c0,1.73,1.97,2.72,3.35,1.68l15.81-11.9c1.12-.84,1.12-2.52,0-3.36Z"/>
          <path class="cls-2" d="M180,104c0,45.21-36.79,82-82,82H28v16h70c54.04,0,98-43.96,98-98V34h-16v70Z"/>
        </g>
        <g>
          <polygon class="cls-4" points="44 130 28 130 28 174 72 174 72 158 44 158 44 130"/>
          <path class="cls-4" d="M98,34c-38.6,0-70,31.4-70,70v14h16v-14c0-29.78,24.22-54,54-54h54v40h-28v14c0,14.34-11.66,26-26,26h-26v-26c0-14.34,11.66-26,26-26h42v-16h-42c-23.16,0-42,18.84-42,42v42h42c23.16,0,42-18.84,42-42v-2h12v2c0,29.78-24.22,54-54,54h-14v16h14c38.6,0,70-31.4,70-70V34h-70Z"/>
        </g>
      </g>
    </g>
  </g>
</svg>